<?xml version="1.0" encoding="iso-8859-1"?>
<!-- Generator: Adobe Illustrator 19.0.0, SVG Export Plug-In . SVG Version: 6.00 Build 0)  -->
<svg version="1.1" id="Layer_1" xmlns="http://www.w3.org/2000/svg" xmlns:xlink="http://www.w3.org/1999/xlink" x="0px" y="0px"
	 viewBox="0 0 511.514 511.514" style="enable-background:new 0 0 511.514 511.514;" xml:space="preserve">
<g>
	<g>
		<path d="M499.277,362.53c-0.32-0.213-0.64-0.427-0.96-0.64L266.53,233.57c0.427-14.4,2.347-18.133,2.773-18.88
			c2.347-1.173,4.693-2.24,7.04-3.307c21.333-10.027,43.413-20.373,43.413-58.24c0-34.56-28.693-62.613-63.893-62.613
			s-63.893,28.053-63.893,62.613h21.333c0-22.72,19.093-41.28,42.667-41.28c23.573,0,42.667,18.56,42.667,41.28
			c0,24.32-11.093,29.547-31.147,38.933c-2.347,1.067-4.8,2.24-7.253,3.413c-11.627,5.653-14.293,21.013-14.827,37.867
			L13.197,361.89c-0.32,0.213-0.64,0.427-0.96,0.64c-10.773,7.573-15.04,23.04-10.347,37.653c4.053,12.8,13.867,20.8,25.6,20.8
			h456.533c11.733,0,21.547-8,25.6-20.907C514.317,385.57,510.05,370.104,499.277,362.53z M489.357,393.677
			c-0.213,0.64-2.027,5.973-5.333,5.973H26.957c-3.307,0-5.12-5.333-5.333-5.973c-1.707-5.227-0.747-11.093,2.027-13.547
			l231.787-128.32l231.787,128.32C490.104,382.477,490.957,388.45,489.357,393.677z"/>
	</g>
</g>
<g>
</g>
<g>
</g>
<g>
</g>
<g>
</g>
<g>
</g>
<g>
</g>
<g>
</g>
<g>
</g>
<g>
</g>
<g>
</g>
<g>
</g>
<g>
</g>
<g>
</g>
<g>
</g>
<g>
</g>
</svg>
