<svg width="20" height="20" fill="none" xmlns="http://www.w3.org/2000/svg"><path d="M6.25 6.39167V5.58334C6.25 3.70834 7.75833 1.86667 9.63333 1.69167 11.8667 1.47501 13.75 3.23334 13.75 5.42501V6.57501M7.49986 18.3333H12.4999C15.8499 18.3333 16.4499 16.9917 16.6249 15.3583L17.2499 10.3583C17.4749 8.32499 16.8915 6.66666 13.3332 6.66666H6.66652C3.10819 6.66666 2.52486 8.32499 2.74986 10.3583L3.37486 15.3583C3.54986 16.9917 4.14986 18.3333 7.49986 18.3333z" stroke="#292D32" stroke-width="1.25" stroke-miterlimit="10" stroke-linecap="round" stroke-linejoin="round"/><path d="M13.1675 15.3902C13.0636 15.3118 12.5907 15.0124 12.3606 14.8156C12.2708 14.7388 12.3342 14.6506 12.2353 14.5586C12.1091 14.441 11.9691 14.3136 11.831 14.1776C11.686 14.0347 11.5501 13.8768 11.4181 13.7134C11.2981 13.5529 10.9238 13.0574 10.6193 12.7292C10.2925 12.377 9.67543 11.9461 9.50594 11.5504C9.49594 11.5243 9.4865 11.4976 9.47816 11.4699C9.44037 11.3432 9.42176 11.2009 9.42731 11.0363C9.43259 10.8766 9.48205 10.7148 9.66654 10.4455C9.86771 10.1517 9.83159 10.0223 9.76185 10.0119C9.69322 10.0018 9.61875 10.0047 9.69349 9.6981C9.75796 9.4328 9.71294 9.32188 9.67127 9.25549C9.63181 9.1931 9.58347 9.16003 9.5454 9.16777C9.45843 9.18536 9.39286 9.38081 9.30784 9.43227C9.28589 9.4456 9.17475 9.50533 9.1967 9.25736C9.20198 9.1987 9.16002 9.1787 9.10167 9.21336C9.01443 9.26535 8.89078 9.40027 8.82354 9.65358C8.81937 9.66931 8.80326 9.67411 8.79576 9.65358C8.78464 9.62291 8.78047 9.56399 8.80548 9.46453C8.82854 9.37201 8.86828 9.29788 8.8241 9.28775C8.76825 9.27469 8.68906 9.38694 8.62793 9.51412C8.61876 9.53306 8.61599 9.53946 8.60932 9.55492C8.60265 9.57065 8.58376 9.58025 8.58264 9.54772C8.58181 9.52506 8.58709 9.48933 8.59987 9.4464C8.60543 9.42747 8.59487 9.42 8.58709 9.41787C8.56875 9.41334 8.54625 9.42267 8.51818 9.44267C8.45539 9.48719 8.39426 9.56905 8.35064 9.67757V9.67704C8.34564 9.68904 8.34147 9.70104 8.33758 9.71303C8.33675 9.7157 8.33563 9.71837 8.3348 9.72103C8.33341 9.72477 8.3323 9.72877 8.33091 9.7325C8.32897 9.73863 8.3273 9.7453 8.32535 9.75143C8.32285 9.7597 8.32035 9.76796 8.31813 9.77649C8.3173 9.77969 8.31646 9.78289 8.31591 9.78609C8.31174 9.80209 8.30813 9.81836 8.30479 9.83542C8.30118 9.85409 8.29812 9.87248 8.29562 9.89061C8.29562 9.89195 8.29535 9.89355 8.29507 9.89488C8.29507 9.89595 8.29507 9.89701 8.29479 9.89808C8.28812 9.94874 8.2859 9.99833 8.28729 10.0458V10.0463C8.28729 10.0543 8.28757 10.0626 8.28812 10.0706C8.28951 10.0967 8.22338 10.1039 8.23783 10.1631C8.27423 10.313 8.33147 10.4652 8.36259 10.5433C8.37426 10.5724 8.35758 10.6044 8.32674 10.6132C8.18115 10.654 7.79299 10.7716 7.52014 10.93C7.5043 10.9393 7.49208 10.9646 7.50625 10.9849C7.51958 11.0038 7.55154 11.0014 7.56654 10.9966C7.87885 10.8972 8.32424 10.7572 8.53958 10.9065C8.6974 11.0158 8.71323 11.2771 8.6146 11.5592C8.58181 11.6637 8.54458 11.7573 8.5104 11.8528L8.50901 11.8533C8.05139 13.0137 8.89495 13.5483 9.67099 14.2378C9.72795 14.2885 9.84604 14.4159 9.95134 14.5645C10.0272 14.6717 10.1044 14.7908 10.0967 14.9079C10.09 15.0063 10.0739 15.1247 10.0383 15.2777C9.99469 15.4649 9.94773 15.3726 9.63987 15.298C9.54345 15.2745 9.53901 15.283 9.4776 15.4086C9.41398 15.5388 9.4087 15.5534 9.42565 15.5619C9.43954 15.5689 10.0164 15.5651 10.0808 15.5769C10.0908 15.5787 10.1005 15.5817 10.1097 15.5859C10.1797 15.6177 10.4973 15.7633 10.594 15.8256C10.6146 15.839 10.6465 15.8342 10.6588 15.8171C10.6732 15.7971 10.6624 15.7715 10.644 15.7606C10.5012 15.6758 10.2125 15.4668 10.2053 15.4025C10.2025 15.378 10.2256 15.2838 10.2373 15.2119C10.2892 14.8898 10.2973 14.769 10.4345 14.7074C10.5618 14.6503 10.8596 14.7964 11.0936 14.8511C11.1041 14.8535 11.1108 14.8634 11.1083 14.8735C11.1008 14.9055 11.0816 14.9812 11.0422 15.1097C11.0369 15.1273 11.0225 15.1687 10.9841 15.1796C10.9344 15.194 10.7385 15.1241 10.6071 15.094C10.5518 15.0812 10.5357 15.0471 10.4106 15.2993C10.4017 15.3172 10.4051 15.3238 10.4109 15.3284C10.4187 15.3342 10.968 15.3601 11.0458 15.3745C11.06 15.3772 11.0736 15.3814 11.0866 15.3876C11.2931 15.4841 11.459 15.5713 11.5701 15.6297C11.6298 15.6611 11.6493 15.6753 11.6712 15.6542C11.6996 15.627 11.6687 15.6051 11.6479 15.5854C11.6362 15.5739 11.5112 15.491 11.3917 15.4092C11.2775 15.3305 11.1675 15.2814 11.1708 15.2409C11.1725 15.2183 11.1864 15.1553 11.1919 15.1353C11.1958 15.1212 11.2367 14.974 11.2517 14.9204C11.2547 14.91 11.2661 14.9039 11.277 14.9074C11.8655 15.0985 12.0463 15.463 12.4945 15.6891C13.033 15.9608 13.6284 15.7369 13.1694 15.391L13.1675 15.3902Z" fill="#292D32"/></svg>