<?xml version="1.0" encoding="UTF-8" standalone="no"?>
<svg
   xmlns:dc="http://purl.org/dc/elements/1.1/"
   xmlns:cc="http://creativecommons.org/ns#"
   xmlns:rdf="http://www.w3.org/1999/02/22-rdf-syntax-ns#"
   xmlns:svg="http://www.w3.org/2000/svg"
   xmlns="http://www.w3.org/2000/svg"
   xmlns:sodipodi="http://sodipodi.sourceforge.net/DTD/sodipodi-0.dtd"
   xmlns:inkscape="http://www.inkscape.org/namespaces/inkscape"
   height="512pt"
   viewBox="0 0 512.00013 512"
   width="512pt"
   version="1.1"
   id="svg6"
   sodipodi:docname="1589196.svg"
   inkscape:version="0.92.4 5da689c313, 2019-01-14">
  <metadata
     id="metadata12">
    <rdf:RDF>
      <cc:Work
         rdf:about="">
        <dc:format>image/svg+xml</dc:format>
        <dc:type
           rdf:resource="http://purl.org/dc/dcmitype/StillImage" />
        <dc:title></dc:title>
      </cc:Work>
    </rdf:RDF>
  </metadata>
  <defs
     id="defs10" />
  <sodipodi:namedview
     pagecolor="#ffffff"
     bordercolor="#666666"
     borderopacity="1"
     objecttolerance="10"
     gridtolerance="10"
     guidetolerance="10"
     inkscape:pageopacity="0"
     inkscape:pageshadow="2"
     inkscape:window-width="1920"
     inkscape:window-height="1052"
     id="namedview8"
     showgrid="false"
     inkscape:zoom="0.9777961"
     inkscape:cx="374.42985"
     inkscape:cy="335.65394"
     inkscape:window-x="1920"
     inkscape:window-y="0"
     inkscape:window-maximized="1"
     inkscape:current-layer="svg6" />
  <path
     style="stroke-width:0.88119417"
     inkscape:connector-curvature="0"
     d="M 511.72413,305.55912 V 200.42117 c 2e-5,-14.57956 -11.8607,-26.44028 -26.44025,-26.4403 l -146.83683,3e-5 c -0.002,0.002 -0.002,0.002 -0.003,6e-5 l -109.64203,-8e-5 c -0.005,0.002 -0.005,0.002 -0.005,0.002 l -164.456578,0.003 c -0.0017,-0.002 -0.0052,-0.002 -0.0079,-0.003 0,0 -0.0052,-0.002 -0.0052,-0.002 l -37.212102,5.4e-4 c -14.57946,0 -26.44023993,11.86073 -26.44023993,26.44024 l 4.447e-4,105.13811 c 0.00262,7.28978 2.96454933,13.89802 7.75219263,18.68549 4.7876096,4.78753 11.3983056,7.75234 18.6880316,7.75475 l 56.784642,2e-5 c 4.867981,0 8.813431,-3.94553 8.813431,-8.81325 0,-4.86827 -3.945494,-8.81375 -8.813405,-8.81377 l -56.784668,2e-5 c -4.860629,0.003 -8.815805,-3.95278 -8.813383,-8.81326 l 9e-6,-105.13798 c -0.0026,-4.86048 3.952727,-8.81567 8.813383,-8.81324 l 28.402098,0.003 v 41.32759 c -1.7e-5,2.43415 0.988203,4.63429 2.582451,6.22887 1.594206,1.59402 3.796966,2.58497 6.228538,2.58253 4.867926,2e-5 8.813388,-3.94554 8.815807,-8.81623 l -9e-6,-41.32859 h 37.195587 l -10e-6,14.58916 c 0,2.4336 0.98608,4.63672 2.58012,6.23076 1.59457,1.59463 3.79954,2.58248 6.2337,2.5825 4.86528,-0.003 8.81082,-3.94794 8.81323,-8.81324 v -14.58918 l 37.19606,3e-5 1e-5,41.32856 c 0,2.43414 0.98546,4.63672 2.58251,6.23371 1.59405,1.59403 3.79713,2.57956 6.2307,2.57956 4.86585,0.003 8.81381,-3.945 8.81141,-8.81085 l 0.003,-41.33098 h 37.19606 l -1e-5,14.58916 c -2e-5,2.43359 0.9855,4.63667 2.57947,6.23075 1.59464,1.59458 3.79963,2.58248 6.23135,2.58007 4.8677,0 8.81323,-3.94551 8.81323,-8.81325 l 0.003,-14.58672 h 37.19612 l -0.003,41.31166 c -3e-5,2.43416 0.98849,4.63909 2.58253,6.23317 1.59397,1.59457 3.79715,2.58007 6.23064,2.5801 4.86831,-3e-5 8.81382,-3.94553 8.81387,-8.81327 v -41.31409 l 37.19605,-2e-5 v 14.58916 c 0,2.43358 0.9855,4.63667 2.5795,6.23071 1.59705,1.59704 3.79958,2.58252 6.23374,2.58252 4.86765,2e-5 8.81321,-3.94555 8.81316,-8.81323 l -4.9e-4,-14.58836 37.19608,1e-5 -5e-5,41.32857 c 0.003,2.43656 0.9885,4.63912 2.58251,6.23372 1.59402,1.594 3.7996,2.58253 6.23128,2.57952 4.86777,0 8.81326,-3.94496 8.81326,-8.81326 v -41.32896 h 37.19879 v 14.58917 c 0,2.43359 0.98543,4.63669 2.58005,6.23071 1.59401,1.59465 3.79899,2.58252 6.23316,2.58252 4.86585,-0.003 8.8108,-3.94795 8.81324,-8.81324 v -14.58434 l 28.38041,-2e-5 c 4.85803,0 8.8132,3.95514 8.8132,8.81321 v 105.13803 c 3e-5,4.85805 -3.95517,8.81324 -8.8132,8.81324 l -330.87463,-3e-5 c -4.86772,3e-5 -8.81322,3.94553 -8.81325,8.81377 0,4.86774 3.94553,8.81326 8.81325,8.81326 h 330.87462 c 14.57954,0 26.44026,-11.86074 26.44023,-26.44024 z m 0,0"
     id="path2" />
  <path
     style="stroke-width:0.87440276"
     inkscape:connector-curvature="0"
     d="m 126.31117,317.07396 c -1.63266,-1.63267 -3.88851,-2.56495 -6.18779,-2.56492 -2.30173,-0.003 -4.55271,0.93952 -6.17812,2.56495 -1.62789,1.62783 -2.56739,3.87644 -2.56501,6.17813 -0.003,2.30171 0.93231,4.55509 2.56499,6.18781 1.62785,1.62785 3.88127,2.56252 6.18296,2.56009 2.30174,0.003 4.55749,-0.92985 6.18535,-2.55771 1.62549,-1.62545 2.56015,-3.88368 2.55777,-6.18538 -3e-5,-2.29929 -0.93228,-4.55508 -2.56015,-6.18297 z m 0,0"
     id="path4" />
</svg>
